<svg width="808" height="808" viewBox="0 0 808 808" fill="none" xmlns="http://www.w3.org/2000/svg">
<path fill-rule="evenodd" clip-rule="evenodd" d="M404 808C627.123 808 808 627.123 808 404C808 180.877 627.123 0 404 0C180.877 0 0 180.877 0 404C0 627.123 180.877 808 404 808ZM404 772C607.241 772 772 607.241 772 404C772 200.759 607.241 36 404 36C200.759 36 36 200.759 36 404C36 607.241 200.759 772 404 772Z" fill="#000"/>
<circle cx="404" cy="404" r="110" fill="#C73804"/>
<path fill-rule="evenodd" clip-rule="evenodd" d="M642.92 648.707C581.273 708.904 496.969 746 404 746C215.119 746 62 592.881 62 404C62 215.119 215.119 62 404 62C497.932 62 583.019 99.8684 644.828 161.171L644.829 161.171L644.847 161.19L646.193 162.565L647.64 164.042C654.536 171.084 652.735 183.416 647.326 188.712C641.917 194.008 628.817 196.264 621.92 189.222C621.324 188.614 620.351 187.62 619.72 186.976L619.471 186.721L619.469 186.723C564.167 131.878 488.04 98 404 98C235.001 98 98 235.001 98 404C98 572.999 235.001 710 404 710C487.196 710 562.637 676.799 617.797 622.923L617.828 622.955L618.68 622.108C625.667 615.155 637.995 616.84 643.32 622.193C648.645 627.546 650.986 640.608 643.999 647.561C643.693 647.864 643.29 648.265 642.883 648.67L642.92 648.707Z" fill="#000"/>
<path fill-rule="evenodd" clip-rule="evenodd" d="M492.859 555.954C466.779 571.238 436.413 580 404 580C306.798 580 228 501.202 228 404C228 306.798 306.798 228 404 228C437.136 228 468.132 237.157 494.598 253.078L494.602 253.071L496.624 254.33C504.991 259.541 517.187 254.249 521.191 247.823C525.194 241.397 524.029 228.987 515.662 223.775C514.526 223.068 512.252 221.651 512.252 221.651L512.238 221.675C480.555 202.826 443.542 192 404 192C286.916 192 192 286.916 192 404C192 521.084 286.916 616 404 616C443.183 616 479.883 605.37 511.374 586.836L511.38 586.845C511.38 586.845 511.473 586.786 511.631 586.685C511.797 586.587 511.963 586.489 512.128 586.39L512.118 586.373C512.878 585.888 514.048 585.139 514.764 584.681C523.067 579.368 523.533 566.081 519.454 559.702C515.374 553.324 503.668 549.038 495.366 554.351C494.692 554.782 493.617 555.47 492.859 555.954Z" fill="#000"/>
<path fill-rule="evenodd" clip-rule="evenodd" d="M546.266 598.549C506.394 627.755 457.211 645 404 645C270.899 645 163 537.101 163 404C163 270.899 270.899 163 404 163C458.534 163 508.838 181.113 549.223 211.652L549.238 211.632C549.942 212.181 550.904 212.932 551.514 213.407C559.287 219.469 571.772 215.743 576.291 209.951C580.81 204.158 580.775 191.926 573.002 185.864C572.267 185.291 571.022 184.32 570.332 183.781L570.356 183.75C524.099 148.757 466.473 128 404 128C251.569 128 128 251.569 128 404C128 556.431 251.569 680 404 680C465.79 680 522.837 659.695 568.833 625.394L568.809 625.36C569.504 624.816 570.422 624.097 571.011 623.636C578.771 617.557 578.147 604.51 573.6 598.703C569.054 592.897 557.153 589.947 549.393 596.026C548.339 596.851 546.23 598.503 546.23 598.503L546.266 598.549Z" fill="#000"/>
</svg>
