<svg width="591" height="684" viewBox="0 0 591 684" fill="none" xmlns="http://www.w3.org/2000/svg">
<circle cx="342" cy="342" r="110" fill="#C73804"/>
<path fill-rule="evenodd" clip-rule="evenodd" d="M580.92 586.707C519.273 646.904 434.969 684 342 684C153.119 684 0 530.881 0 342C0 153.119 153.119 0 342 0C435.932 0 521.019 37.8684 582.828 99.1714L582.829 99.1709C582.829 99.1709 584.702 101.085 585.639 102.042C592.536 109.084 590.735 121.416 585.326 126.712C579.917 132.008 566.816 134.264 559.919 127.222C559.485 126.778 558.848 126.128 558.291 125.559L557.471 124.721L557.469 124.723C502.167 69.8784 426.04 36 342 36C173.001 36 36 173.001 36 342C36 510.999 173.001 648 342 648C425.196 648 500.637 614.799 555.797 560.923L555.828 560.955C556.142 560.643 556.441 560.345 556.679 560.108C563.666 553.155 575.995 554.84 581.32 560.193C586.644 565.546 588.985 578.608 581.998 585.561C581.693 585.864 581.29 586.265 580.883 586.67L580.92 586.707Z" fill="#000"/>
<path fill-rule="evenodd" clip-rule="evenodd" d="M430.859 493.954C404.779 509.238 374.413 518 342 518C244.798 518 166 439.202 166 342C166 244.798 244.798 166 342 166C375.136 166 406.132 175.157 432.598 191.078L432.602 191.071L434.624 192.33C442.991 197.541 455.187 192.249 459.191 185.823C463.194 179.397 462.029 166.987 453.662 161.775C452.526 161.068 450.252 159.651 450.252 159.651L450.238 159.675C418.555 140.826 381.542 130 342 130C224.916 130 130 224.916 130 342C130 459.084 224.916 554 342 554C381.183 554 417.883 543.37 449.374 524.836L449.38 524.845C449.38 524.845 449.473 524.786 449.631 524.685C449.797 524.587 449.963 524.489 450.128 524.39L450.118 524.373C450.878 523.888 452.048 523.139 452.764 522.681C461.067 517.368 461.533 504.081 457.454 497.702C453.374 491.324 441.668 487.038 433.366 492.351C432.692 492.782 431.617 493.47 430.859 493.954Z" fill="#000"/>
<path fill-rule="evenodd" clip-rule="evenodd" d="M484.266 536.549C444.394 565.755 395.211 583 342 583C208.899 583 101 475.101 101 342C101 208.899 208.899 101 342 101C396.534 101 446.838 119.113 487.223 149.652L487.238 149.632C487.942 150.181 488.904 150.932 489.514 151.407C497.287 157.469 509.772 153.743 514.291 147.951C518.81 142.158 518.775 129.926 511.002 123.864C510.267 123.291 509.022 122.32 508.332 121.781L508.356 121.75C462.099 86.7566 404.473 66 342 66C189.569 66 66 189.569 66 342C66 494.431 189.569 618 342 618C403.79 618 460.837 597.695 506.833 563.394L506.809 563.36C507.504 562.816 508.422 562.097 509.011 561.636C516.771 555.557 516.147 542.51 511.6 536.703C507.054 530.897 495.153 527.947 487.393 534.026C486.991 534.34 486.436 534.775 485.903 535.192L484.23 536.503L484.266 536.549Z" fill="#000"/>
</svg>
