<svg width="134" height="61" viewBox="0 0 134 61" fill="none" xmlns="http://www.w3.org/2000/svg">
<path fill-rule="evenodd" clip-rule="evenodd" d="M0 6C0 2.68629 2.68629 0 6 0H128C131.314 0 134 2.68629 134 6C134 9.31371 131.314 12 128 12H6C2.68629 12 0 9.31371 0 6ZM0 31C0 27.6863 2.68629 25 6 25H128C131.314 25 134 27.6863 134 31C134 34.3137 131.314 37 128 37H6C2.68629 37 0 34.3137 0 31ZM0 55C0 51.6863 2.68629 49 6 49H128C131.314 49 134 51.6863 134 55C134 58.3137 131.314 61 128 61H6C2.68629 61 0 58.3137 0 55Z" fill="#FFF"/>
</svg>
