<svg width="96" height="61" viewBox="0 0 96 61" fill="none" xmlns="http://www.w3.org/2000/svg">
<path fill-rule="evenodd" clip-rule="evenodd" d="M0 6C0 2.68629 1.92451 0 4.29851 0H91.7015C94.0755 0 96 2.68629 96 6C96 9.31371 94.0755 12 91.7015 12H4.29851C1.92451 12 0 9.31371 0 6ZM0 31C0 27.6863 1.92451 25 4.29851 25H91.7015C94.0755 25 96 27.6863 96 31C96 34.3137 94.0755 37 91.7015 37H4.29851C1.92451 37 0 34.3137 0 31ZM0 55C0 51.6863 1.92451 49 4.29851 49H91.7015C94.0755 49 96 51.6863 96 55C96 58.3137 94.0755 61 91.7015 61H4.29851C1.92451 61 0 58.3137 0 55Z" fill="#000"/>
</svg>
